<svg width="100%" viewBox="0 0 680 200" xmlns="http://www.w3.org/2000/svg">
  <defs>
    <linearGradient id="lg" x1="0" y1="0" x2="1" y2="1">
      <stop offset="0%" stop-color="#7F77DD"/>
      <stop offset="100%" stop-color="#5DCAA5"/>
    </linearGradient>
    <linearGradient id="bg" x1="0" y1="0" x2="0.3" y2="1">
      <stop offset="0%" stop-color="#1a1632"/>
      <stop offset="100%" stop-color="#0f1a24"/>
    </linearGradient>
    <radialGradient id="core-glow" cx="50%" cy="50%">
      <stop offset="0%" stop-color="#5DCAA5" stop-opacity="0.2"/>
      <stop offset="40%" stop-color="#5DCAA5" stop-opacity="0.06"/>
      <stop offset="100%" stop-color="#534AB7" stop-opacity="0"/>
    </radialGradient>
  </defs>
  <rect x="0" y="0" width="680" height="200" rx="16" fill="url(#bg)"/>
  <g transform="translate(185, 100)">
    <circle cx="0" cy="0" r="50" fill="url(#core-glow)"/>
    <circle cx="0" cy="0" r="22" fill="none" stroke="#5DCAA5" stroke-width="1.3" opacity="0.5"/>
    <circle cx="0" cy="0" r="44" fill="none" stroke="#7F77DD" stroke-width="1.1" opacity="0.32"/>
    <circle cx="0" cy="0" r="66" fill="none" stroke="#5DCAA5" stroke-width="0.9" opacity="0.22"/>
    <circle cx="0" cy="0" r="88" fill="none" stroke="#7F77DD" stroke-width="0.7" opacity="0.14"/>
    <path d="M0,0 L62,-65 A88,88 0 0,1 88,10 Z" fill="#5DCAA5" opacity="0.035"/>
    <path d="M0,0 L62,-65" fill="none" stroke="#5DCAA5" stroke-width="0.8" opacity="0.3"/>
    <path d="M0,0 L88,10" fill="none" stroke="#5DCAA5" stroke-width="0.8" opacity="0.3"/>
    <line x1="-92" y1="0" x2="92" y2="0" stroke="#7F77DD" stroke-width="0.4" opacity="0.12"/>
    <line x1="0" y1="-92" x2="0" y2="92" stroke="#7F77DD" stroke-width="0.4" opacity="0.12"/>
    <circle cx="16" cy="-14" r="3.5" fill="#9FE1CB" opacity="0.9"/>
    <circle cx="-14" cy="12" r="3" fill="#9FE1CB" opacity="0.85"/>
    <circle cx="6" cy="18" r="2.5" fill="#9FE1CB" opacity="0.8"/>
    <circle cx="38" cy="-18" r="3.5" fill="#9FE1CB" opacity="0.7"/>
    <circle cx="-35" cy="-26" r="3" fill="#AFA9EC" opacity="0.6"/>
    <circle cx="10" cy="42" r="3" fill="#9FE1CB" opacity="0.6"/>
    <circle cx="-40" cy="16" r="3" fill="#AFA9EC" opacity="0.55"/>
    <circle cx="32" cy="32" r="2.5" fill="#AFA9EC" opacity="0.5"/>
    <circle cx="-20" cy="-40" r="2.5" fill="#9FE1CB" opacity="0.55"/>
    <circle cx="62" cy="-20" r="2.5" fill="#9FE1CB" opacity="0.4"/>
    <circle cx="-55" cy="-45" r="2.5" fill="#AFA9EC" opacity="0.35"/>
    <circle cx="52" cy="42" r="2.5" fill="#AFA9EC" opacity="0.35"/>
    <circle cx="-60" cy="35" r="2" fill="#AFA9EC" opacity="0.3"/>
    <circle cx="20" cy="-62" r="2.5" fill="#9FE1CB" opacity="0.35"/>
    <circle cx="-12" cy="64" r="2" fill="#AFA9EC" opacity="0.3"/>
    <circle cx="75" cy="-48" r="2" fill="#9FE1CB" opacity="0.25"/>
    <circle cx="-72" cy="-16" r="2" fill="#AFA9EC" opacity="0.22"/>
    <circle cx="30" cy="80" r="1.5" fill="#9FE1CB" opacity="0.2"/>
    <circle cx="-78" cy="52" r="1.5" fill="#AFA9EC" opacity="0.18"/>
    <circle cx="0" cy="0" r="14" fill="#5DCAA5" opacity="0.08"/>
    <circle cx="0" cy="0" r="14" fill="none" stroke="#5DCAA5" stroke-width="1" opacity="0.4"/>
    <polyline points="-6,-1 -1,5 8,-6" fill="none" stroke="#5DCAA5" stroke-width="2.5" stroke-linecap="round" stroke-linejoin="round"/>
  </g>
  <text x="312" y="94" text-anchor="start" font-family="system-ui, -apple-system, 'Segoe UI', sans-serif" font-size="44" font-weight="600" fill="url(#lg)" letter-spacing="-0.5px">Inqtrix</text>
  <text x="315" y="122" text-anchor="start" font-family="system-ui, -apple-system, 'Segoe UI', sans-serif" font-size="13.5" font-weight="400" fill="#8886a0" letter-spacing="1.5px">ITERATIVE AI RESEARCH AGENT</text>
</svg>
